<svg width="129" height="60" viewBox="0 0 129 60" fill="none" xmlns="http://www.w3.org/2000/svg">
    <g filter="url(#filter0_i_1734_12370)">
        <g filter="url(#filter1_d_1734_12370)">
            <path d="M18.436 35.356L19.012 34.94C19.7373 34.5133 20.2493 34.3 20.548 34.3C21.2093 34.3 21.924 34.8973 22.692 36.092C23.1613 36.8387 23.396 37.436 23.396 37.884C23.396 38.332 23.2467 38.7053 22.948 39.004C22.6707 39.3027 22.34 39.5693 21.956 39.804C21.572 40.0387 21.1987 40.2627 20.836 40.476C20.4947 40.6893 19.78 40.9667 18.692 41.308C17.604 41.6493 16.548 41.82 15.524 41.82C14.5213 41.82 13.4973 41.692 12.452 41.436C11.428 41.1587 10.3613 40.7107 9.252 40.092C8.164 39.452 7.18267 38.684 6.308 37.788C5.43333 36.8707 4.708 35.708 4.132 34.3C3.57733 32.8707 3.3 31.324 3.3 29.66C3.3 27.996 3.57733 26.492 4.132 25.148C4.68667 23.7827 5.39067 22.6627 6.244 21.788C7.11867 20.892 8.11067 20.1453 9.22 19.548C11.3107 18.396 13.412 17.82 15.524 17.82C16.5267 17.82 17.54 17.98 18.564 18.3C19.6093 18.5987 20.3987 18.908 20.932 19.228L21.7 19.676C22.084 19.9107 22.3827 20.1027 22.596 20.252C23.1507 20.7 23.428 21.212 23.428 21.788C23.428 22.3427 23.204 22.9293 22.756 23.548C21.924 24.7 21.1773 25.276 20.516 25.276C20.132 25.276 19.588 25.0413 18.884 24.572C17.988 23.8467 16.7933 23.484 15.3 23.484C13.9133 23.484 12.548 23.964 11.204 24.924C10.564 25.3933 10.0307 26.0547 9.604 26.908C9.17733 27.7613 8.964 28.732 8.964 29.82C8.964 30.8867 9.17733 31.8467 9.604 32.7C10.0307 33.5533 10.5747 34.2253 11.236 34.716C12.5373 35.6547 13.892 36.124 15.3 36.124C15.9613 36.124 16.58 36.0387 17.156 35.868C17.7533 35.6973 18.18 35.5267 18.436 35.356ZM25.4988 20.86C25.4988 20.3693 25.5094 20.0067 25.5308 19.772C25.5734 19.516 25.6801 19.228 25.8508 18.908C26.1494 18.332 26.9814 18.044 28.3468 18.044C29.8401 18.044 30.7254 18.4387 31.0028 19.228C31.1094 19.5907 31.1628 20.1453 31.1628 20.892V38.684C31.1628 39.196 31.1414 39.5693 31.0988 39.804C31.0774 40.0387 30.9814 40.316 30.8108 40.636C30.5121 41.212 29.6801 41.5 28.3148 41.5C26.8214 41.5 25.9468 41.0947 25.6908 40.284C25.5628 39.9427 25.4988 39.3987 25.4988 38.652V20.86ZM48.8535 19.036C49.0668 18.652 49.3762 18.396 49.7815 18.268C50.1868 18.14 50.6882 18.076 51.2855 18.076C51.9042 18.076 52.3948 18.1293 52.7575 18.236C53.1415 18.3427 53.4188 18.4707 53.5895 18.62C53.7815 18.7693 53.9202 18.9933 54.0055 19.292C54.1335 19.6333 54.1975 20.1773 54.1975 20.924V38.684C54.1975 39.196 54.1762 39.5693 54.1335 39.804C54.1122 40.0387 54.0162 40.316 53.8455 40.636C53.5468 41.212 52.7148 41.5 51.3495 41.5C50.5175 41.5 49.9415 41.436 49.6215 41.308C49.3015 41.18 49.0348 40.9773 48.8215 40.7C44.0215 34.3 40.8642 30.1187 39.3495 28.156V38.684C39.3495 39.196 39.3282 39.5693 39.2855 39.804C39.2642 40.0387 39.1682 40.316 38.9975 40.636C38.6988 41.212 37.8668 41.5 36.5015 41.5C35.1788 41.5 34.3682 41.212 34.0695 40.636C33.8988 40.316 33.7922 40.028 33.7495 39.772C33.7282 39.516 33.7175 39.1427 33.7175 38.652V20.796C33.7175 19.9853 33.8135 19.3987 34.0055 19.036C34.2188 18.652 34.5282 18.396 34.9335 18.268C35.3388 18.14 35.8615 18.076 36.5015 18.076C37.1415 18.076 37.6428 18.14 38.0055 18.268C38.3895 18.3747 38.6562 18.5027 38.8055 18.652C38.8908 18.716 39.1362 18.9933 39.5415 19.484C44.0428 25.6067 47.0508 29.6493 48.5655 31.612V20.796C48.5655 19.9853 48.6615 19.3987 48.8535 19.036ZM62.4128 35.836H72.2688C72.7594 35.836 73.1221 35.8573 73.3568 35.9C73.6128 35.9213 73.9008 36.0173 74.2208 36.188C74.7968 36.4867 75.0848 37.3187 75.0848 38.684C75.0848 40.1773 74.6901 41.052 73.9008 41.308C73.5381 41.436 72.9834 41.5 72.2368 41.5H59.5648C58.0714 41.5 57.1968 41.0947 56.9408 40.284C56.8128 39.9427 56.7488 39.3987 56.7488 38.652V20.86C56.7488 19.772 56.9514 19.036 57.3568 18.652C57.7621 18.2467 58.5301 18.044 59.6608 18.044H72.2688C72.7594 18.044 73.1221 18.0653 73.3568 18.108C73.6128 18.1293 73.9008 18.2253 74.2208 18.396C74.7968 18.6947 75.0848 19.5267 75.0848 20.892C75.0848 22.3853 74.6901 23.26 73.9008 23.516C73.5381 23.644 72.9834 23.708 72.2368 23.708H62.4128V26.94H68.7488C69.2394 26.94 69.6021 26.9613 69.8368 27.004C70.0928 27.0253 70.3808 27.1213 70.7008 27.292C71.2768 27.5907 71.5648 28.4227 71.5648 29.788C71.5648 31.2813 71.1594 32.156 70.3488 32.412C69.9861 32.54 69.4314 32.604 68.6848 32.604H62.4128V35.836ZM102.083 18.94C102.254 19.26 102.35 19.548 102.371 19.804C102.414 20.06 102.435 20.4333 102.435 20.924V38.684C102.435 40.156 102.03 41.02 101.219 41.276C100.814 41.404 100.302 41.468 99.683 41.468C99.0643 41.468 98.5737 41.4147 98.211 41.308C97.8483 41.2013 97.571 41.0733 97.379 40.924C97.187 40.7747 97.0377 40.5613 96.931 40.284C96.8243 39.9213 96.771 39.3667 96.771 38.62V27.9C96.2377 28.5613 95.459 29.6173 94.435 31.068C93.411 32.4973 92.7603 33.3933 92.483 33.756C92.2057 34.1187 92.0137 34.3747 91.907 34.524C91.8003 34.652 91.5337 34.844 91.107 35.1C90.7017 35.3347 90.2537 35.452 89.763 35.452C89.2937 35.452 88.8563 35.3453 88.451 35.132C88.067 34.8973 87.7897 34.6733 87.619 34.46L87.363 34.108C86.9363 33.5747 86.0937 32.444 84.835 30.716C83.5763 28.9667 82.8937 28.028 82.787 27.9V38.684C82.787 39.1747 82.7657 39.548 82.723 39.804C82.7017 40.0387 82.6057 40.3053 82.435 40.604C82.115 41.18 81.283 41.468 79.939 41.468C78.6377 41.468 77.827 41.18 77.507 40.604C77.3363 40.3053 77.2297 40.028 77.187 39.772C77.1657 39.516 77.155 39.132 77.155 38.62V20.86C77.155 20.3693 77.1657 20.0067 77.187 19.772C77.2297 19.516 77.3363 19.228 77.507 18.908C77.827 18.3533 78.659 18.076 80.003 18.076C80.579 18.076 81.0697 18.1507 81.475 18.3C81.9017 18.428 82.179 18.5667 82.307 18.716L82.499 18.908L89.763 28.444C93.3897 23.644 95.811 20.476 97.027 18.94C97.3897 18.364 98.243 18.076 99.587 18.076C100.952 18.076 101.784 18.364 102.083 18.94Z"
                  fill="url(#paint0_linear_1734_12370)"/>
        </g>
        <g filter="url(#filter2_d_1734_12370)">
            <g filter="url(#filter3_i_1734_12370)">
                <circle cx="116.5" cy="29.9915" r="10" fill="#31D7A9"/>
            </g>
            <g filter="url(#filter4_i_1734_12370)">
                <ellipse cx="116.5" cy="24.9915" rx="2" ry="2" fill="#333333"/>
            </g>
            <g filter="url(#filter5_i_1734_12370)">
                <ellipse cx="116.5" cy="34.9915" rx="2" ry="2" fill="#333333"/>
            </g>
            <g filter="url(#filter6_i_1734_12370)">
                <ellipse cx="121.5" cy="29.9915" rx="2" ry="2" fill="#333333"/>
            </g>
            <g filter="url(#filter7_i_1734_12370)">
                <ellipse cx="111.5" cy="29.9915" rx="2" ry="2" fill="#333333"/>
            </g>
            <g filter="url(#filter8_i_1734_12370)">
                <ellipse cx="116.5" cy="29.9915" rx="1" ry="1" fill="#333333"/>
            </g>
            <line x1="125" y1="30.0087" x2="125" y2="40.0087" stroke="url(#paint1_linear_1734_12370)" stroke-width="3"/>
        </g>
    </g>
    <defs>
        <filter id="filter0_i_1734_12370" x="0.5" y="0.5" width="129" height="60" filterUnits="userSpaceOnUse"
                color-interpolation-filters="sRGB">
            <feFlood flood-opacity="0" result="BackgroundImageFix"/>
            <feBlend mode="normal" in="SourceGraphic" in2="BackgroundImageFix" result="shape"/>
            <feColorMatrix in="SourceAlpha" type="matrix" values="0 0 0 0 0 0 0 0 0 0 0 0 0 0 0 0 0 0 127 0"
                           result="hardAlpha"/>
            <feOffset dx="1" dy="1"/>
            <feGaussianBlur stdDeviation="0.5"/>
            <feComposite in2="hardAlpha" operator="arithmetic" k2="-1" k3="1"/>
            <feColorMatrix type="matrix" values="0 0 0 0 0 0 0 0 0 0 0 0 0 0 0 0 0 0 0.4 0"/>
            <feBlend mode="normal" in2="shape" result="effect1_innerShadow_1734_12370"/>
        </filter>
        <filter id="filter1_d_1734_12370" x="3.2998" y="17.8199" width="99.6348" height="24.5"
                filterUnits="userSpaceOnUse" color-interpolation-filters="sRGB">
            <feFlood flood-opacity="0" result="BackgroundImageFix"/>
            <feColorMatrix in="SourceAlpha" type="matrix" values="0 0 0 0 0 0 0 0 0 0 0 0 0 0 0 0 0 0 127 0"
                           result="hardAlpha"/>
            <feOffset dx="0.5" dy="0.5"/>
            <feComposite in2="hardAlpha" operator="out"/>
            <feColorMatrix type="matrix" values="0 0 0 0 0 0 0 0 0 0 0 0 0 0 0 0 0 0 1 0"/>
            <feBlend mode="normal" in2="BackgroundImageFix" result="effect1_dropShadow_1734_12370"/>
            <feBlend mode="normal" in="SourceGraphic" in2="effect1_dropShadow_1734_12370" result="shape"/>
        </filter>
        <filter id="filter2_d_1734_12370" x="106.5" y="19.9915" width="20.5" height="20.5172"
                filterUnits="userSpaceOnUse" color-interpolation-filters="sRGB">
            <feFlood flood-opacity="0" result="BackgroundImageFix"/>
            <feColorMatrix in="SourceAlpha" type="matrix" values="0 0 0 0 0 0 0 0 0 0 0 0 0 0 0 0 0 0 127 0"
                           result="hardAlpha"/>
            <feOffset dx="0.5" dy="0.5"/>
            <feComposite in2="hardAlpha" operator="out"/>
            <feColorMatrix type="matrix" values="0 0 0 0 1 0 0 0 0 1 0 0 0 0 1 0 0 0 0.5 0"/>
            <feBlend mode="normal" in2="BackgroundImageFix" result="effect1_dropShadow_1734_12370"/>
            <feBlend mode="normal" in="SourceGraphic" in2="effect1_dropShadow_1734_12370" result="shape"/>
        </filter>
        <filter id="filter3_i_1734_12370" x="106.5" y="19.9915" width="24" height="21" filterUnits="userSpaceOnUse"
                color-interpolation-filters="sRGB">
            <feFlood flood-opacity="0" result="BackgroundImageFix"/>
            <feBlend mode="normal" in="SourceGraphic" in2="BackgroundImageFix" result="shape"/>
            <feColorMatrix in="SourceAlpha" type="matrix" values="0 0 0 0 0 0 0 0 0 0 0 0 0 0 0 0 0 0 127 0"
                           result="hardAlpha"/>
            <feMorphology radius="1" operator="dilate" in="SourceAlpha" result="effect1_innerShadow_1734_12370"/>
            <feOffset dx="5" dy="1"/>
            <feGaussianBlur stdDeviation="2.5"/>
            <feComposite in2="hardAlpha" operator="arithmetic" k2="-1" k3="1"/>
            <feColorMatrix type="matrix" values="0 0 0 0 0 0 0 0 0 0 0 0 0 0 0 0 0 0 0.5 0"/>
            <feBlend mode="normal" in2="shape" result="effect1_innerShadow_1734_12370"/>
        </filter>
        <filter id="filter4_i_1734_12370" x="113.5" y="22.9915" width="5" height="6" filterUnits="userSpaceOnUse"
                color-interpolation-filters="sRGB">
            <feFlood flood-opacity="0" result="BackgroundImageFix"/>
            <feBlend mode="normal" in="SourceGraphic" in2="BackgroundImageFix" result="shape"/>
            <feColorMatrix in="SourceAlpha" type="matrix" values="0 0 0 0 0 0 0 0 0 0 0 0 0 0 0 0 0 0 127 0"
                           result="hardAlpha"/>
            <feOffset dx="-1" dy="2"/>
            <feGaussianBlur stdDeviation="1.5"/>
            <feComposite in2="hardAlpha" operator="arithmetic" k2="-1" k3="1"/>
            <feColorMatrix type="matrix" values="0 0 0 0 0 0 0 0 0 0 0 0 0 0 0 0 0 0 0.5 0"/>
            <feBlend mode="normal" in2="shape" result="effect1_innerShadow_1734_12370"/>
        </filter>
        <filter id="filter5_i_1734_12370" x="113.5" y="32.9915" width="5" height="6" filterUnits="userSpaceOnUse"
                color-interpolation-filters="sRGB">
            <feFlood flood-opacity="0" result="BackgroundImageFix"/>
            <feBlend mode="normal" in="SourceGraphic" in2="BackgroundImageFix" result="shape"/>
            <feColorMatrix in="SourceAlpha" type="matrix" values="0 0 0 0 0 0 0 0 0 0 0 0 0 0 0 0 0 0 127 0"
                           result="hardAlpha"/>
            <feOffset dx="-1" dy="2"/>
            <feGaussianBlur stdDeviation="1.5"/>
            <feComposite in2="hardAlpha" operator="arithmetic" k2="-1" k3="1"/>
            <feColorMatrix type="matrix" values="0 0 0 0 0 0 0 0 0 0 0 0 0 0 0 0 0 0 0.5 0"/>
            <feBlend mode="normal" in2="shape" result="effect1_innerShadow_1734_12370"/>
        </filter>
        <filter id="filter6_i_1734_12370" x="118.5" y="27.9915" width="5" height="6" filterUnits="userSpaceOnUse"
                color-interpolation-filters="sRGB">
            <feFlood flood-opacity="0" result="BackgroundImageFix"/>
            <feBlend mode="normal" in="SourceGraphic" in2="BackgroundImageFix" result="shape"/>
            <feColorMatrix in="SourceAlpha" type="matrix" values="0 0 0 0 0 0 0 0 0 0 0 0 0 0 0 0 0 0 127 0"
                           result="hardAlpha"/>
            <feOffset dx="-1" dy="2"/>
            <feGaussianBlur stdDeviation="1.5"/>
            <feComposite in2="hardAlpha" operator="arithmetic" k2="-1" k3="1"/>
            <feColorMatrix type="matrix" values="0 0 0 0 0 0 0 0 0 0 0 0 0 0 0 0 0 0 0.5 0"/>
            <feBlend mode="normal" in2="shape" result="effect1_innerShadow_1734_12370"/>
        </filter>
        <filter id="filter7_i_1734_12370" x="108.5" y="27.9915" width="5" height="6" filterUnits="userSpaceOnUse"
                color-interpolation-filters="sRGB">
            <feFlood flood-opacity="0" result="BackgroundImageFix"/>
            <feBlend mode="normal" in="SourceGraphic" in2="BackgroundImageFix" result="shape"/>
            <feColorMatrix in="SourceAlpha" type="matrix" values="0 0 0 0 0 0 0 0 0 0 0 0 0 0 0 0 0 0 127 0"
                           result="hardAlpha"/>
            <feOffset dx="-1" dy="2"/>
            <feGaussianBlur stdDeviation="1.5"/>
            <feComposite in2="hardAlpha" operator="arithmetic" k2="-1" k3="1"/>
            <feColorMatrix type="matrix" values="0 0 0 0 0 0 0 0 0 0 0 0 0 0 0 0 0 0 0.5 0"/>
            <feBlend mode="normal" in2="shape" result="effect1_innerShadow_1734_12370"/>
        </filter>
        <filter id="filter8_i_1734_12370" x="115.5" y="28.9915" width="2" height="2" filterUnits="userSpaceOnUse"
                color-interpolation-filters="sRGB">
            <feFlood flood-opacity="0" result="BackgroundImageFix"/>
            <feBlend mode="normal" in="SourceGraphic" in2="BackgroundImageFix" result="shape"/>
            <feColorMatrix in="SourceAlpha" type="matrix" values="0 0 0 0 0 0 0 0 0 0 0 0 0 0 0 0 0 0 127 0"
                           result="hardAlpha"/>
            <feOffset/>
            <feGaussianBlur stdDeviation="2"/>
            <feComposite in2="hardAlpha" operator="arithmetic" k2="-1" k3="1"/>
            <feColorMatrix type="matrix" values="0 0 0 0 0 0 0 0 0 0 0 0 0 0 0 0 0 0 0.5 0"/>
            <feBlend mode="normal" in2="shape" result="effect1_innerShadow_1734_12370"/>
        </filter>
        <linearGradient id="paint0_linear_1734_12370" x1="2.5" y1="30" x2="106.5" y2="30"
                        gradientUnits="userSpaceOnUse">
            <stop stop-color="#FF4343"/>
            <stop offset="0.211458" stop-color="#AA52A1"/>
            <stop offset="0.492708" stop-color="#002DBB"/>
            <stop offset="0.846875" stop-color="#31AFD7"/>
        </linearGradient>
        <linearGradient id="paint1_linear_1734_12370" x1="125.5" y1="30.0087" x2="125.5" y2="40.0087"
                        gradientUnits="userSpaceOnUse">
            <stop stop-color="#31D7A9"/>
            <stop offset="0.505208" stop-color="#31D7A9"/>
            <stop offset="1" stop-color="#22856A" stop-opacity="0.45"/>
        </linearGradient>
    </defs>
</svg>
